<?xml version="1.0" encoding="UTF-8" standalone="no"?>
<!DOCTYPE svg PUBLIC "-//W3C//DTD SVG 1.1//EN" "http://www.w3.org/Graphics/SVG/1.1/DTD/svg11.dtd">
<svg width="100%" height="100%" viewBox="0 0 200 200" version="1.1" xmlns="http://www.w3.org/2000/svg" xmlns:xlink="http://www.w3.org/1999/xlink" xml:space="preserve" xmlns:serif="http://www.serif.com/" style="fill-rule:evenodd;clip-rule:evenodd;stroke-linejoin:round;stroke-miterlimit:2;">
    <g transform="matrix(0.901961,0,0,0.901961,9.80392,9.80392)">
        <path d="M100,49C128.148,49 151,71.852 151,100C151,128.148 128.148,151 100,151C71.852,151 49,128.148 49,100C49,71.852 71.852,49 100,49ZM100,68.957C117.133,68.957 131.043,82.867 131.043,100C131.043,117.133 117.133,131.043 100,131.043C82.867,131.043 68.957,117.133 68.957,100C68.957,82.867 82.867,68.957 100,68.957Z"/>
    </g>
    <g transform="matrix(0.965926,0.258819,-0.212601,0.793439,31.2305,-29.7189)">
        <path d="M107,22.522C107,17.818 103.863,14 100,14C96.137,14 93,17.818 93,22.522L93,61.478C93,66.182 96.137,70 100,70C103.863,70 107,66.182 107,61.478L107,22.522Z"/>
    </g>
    <g transform="matrix(0.965926,0.258819,-0.212601,0.793439,31.2305,-29.7189)">
        <path d="M107,22.522C107,17.818 103.863,14 100,14C96.137,14 93,17.818 93,22.522L93,61.478C93,66.182 96.137,70 100,70C103.863,70 107,66.182 107,61.478L107,22.522Z"/>
    </g>
    <g transform="matrix(0.5,0.866025,-0.711378,0.410714,143.098,-40.3525)">
        <path d="M107,22.522C107,17.818 103.863,14 100,14C96.137,14 93,17.818 93,22.522L93,61.478C93,66.182 96.137,70 100,70C103.863,70 107,66.182 107,61.478L107,22.522Z"/>
    </g>
    <g transform="matrix(-0.258819,0.965926,-0.793439,-0.212601,229.719,31.2305)">
        <path d="M107,22.522C107,17.818 103.863,14 100,14C96.137,14 93,17.818 93,22.522L93,61.478C93,66.182 96.137,70 100,70C103.863,70 107,66.182 107,61.478L107,22.522Z"/>
    </g>
    <g transform="matrix(-0.866025,0.5,-0.410714,-0.711378,240.353,143.098)">
        <path d="M107,22.522C107,17.818 103.863,14 100,14C96.137,14 93,17.818 93,22.522L93,61.478C93,66.182 96.137,70 100,70C103.863,70 107,66.182 107,61.478L107,22.522Z"/>
    </g>
    <g transform="matrix(-0.965926,-0.258819,0.212601,-0.793439,168.77,229.719)">
        <path d="M107,22.522C107,17.818 103.863,14 100,14C96.137,14 93,17.818 93,22.522L93,61.478C93,66.182 96.137,70 100,70C103.863,70 107,66.182 107,61.478L107,22.522Z"/>
    </g>
    <g transform="matrix(-0.5,-0.866025,0.711378,-0.410714,56.9023,240.353)">
        <path d="M107,22.522C107,17.818 103.863,14 100,14C96.137,14 93,17.818 93,22.522L93,61.478C93,66.182 96.137,70 100,70C103.863,70 107,66.182 107,61.478L107,22.522Z"/>
    </g>
    <g transform="matrix(0.258819,-0.965926,0.793439,0.212601,-29.7189,168.77)">
        <path d="M107,22.522C107,17.818 103.863,14 100,14C96.137,14 93,17.818 93,22.522L93,61.478C93,66.182 96.137,70 100,70C103.863,70 107,66.182 107,61.478L107,22.522Z"/>
    </g>
    <g transform="matrix(0.866025,-0.5,0.410714,0.711378,-40.3525,56.9023)">
        <path d="M107,22.522C107,17.818 103.863,14 100,14C96.137,14 93,17.818 93,22.522L93,61.478C93,66.182 96.137,70 100,70C103.863,70 107,66.182 107,61.478L107,22.522Z"/>
    </g>
</svg>
